<mxfile host="Electron" modified="2025-05-30T18:44:15.765Z" agent="Mozilla/5.0 (Windows NT 6.3; Win64; x64) AppleWebKit/537.36 (KHTML, like Gecko) draw.io/21.1.2 Chrome/106.0.5249.199 Electron/21.4.3 Safari/537.36" etag="TnePNghVMMFiBf3f3Ya7" version="21.1.2" type="device">
  <diagram id="5Rbx5dGbsCHwGKPz8jNR" name="DataFlowChart">
    <mxGraphModel dx="4236" dy="615" grid="1" gridSize="10" guides="1" tooltips="1" connect="1" arrows="1" fold="1" page="0" pageScale="1" pageWidth="850" pageHeight="1100" math="0" shadow="0">
      <root>
        <mxCell id="0" />
        <mxCell id="1" parent="0" />
        <mxCell id="eXvhJl0RNyIvwt-oUu9l-39" style="edgeStyle=orthogonalEdgeStyle;rounded=0;orthogonalLoop=1;jettySize=auto;html=1;entryX=0;entryY=0.5;entryDx=0;entryDy=0;" parent="1" edge="1">
          <mxGeometry relative="1" as="geometry">
            <mxPoint x="-2748.5" y="484" as="sourcePoint" />
            <mxPoint x="-2577" y="547" as="targetPoint" />
            <Array as="points">
              <mxPoint x="-2670" y="484" />
              <mxPoint x="-2670" y="547" />
            </Array>
          </mxGeometry>
        </mxCell>
        <mxCell id="eXvhJl0RNyIvwt-oUu9l-40" style="edgeStyle=orthogonalEdgeStyle;rounded=0;orthogonalLoop=1;jettySize=auto;html=1;entryX=0;entryY=0.5;entryDx=0;entryDy=0;" parent="1" edge="1">
          <mxGeometry relative="1" as="geometry">
            <mxPoint x="-2748.5" y="484" as="sourcePoint" />
            <mxPoint x="-2577" y="427" as="targetPoint" />
            <Array as="points">
              <mxPoint x="-2670" y="484" />
              <mxPoint x="-2670" y="427" />
            </Array>
          </mxGeometry>
        </mxCell>
        <mxCell id="JBjidpgJkJ3qZbdawhBS-1" value="" style="rounded=0;whiteSpace=wrap;html=1;fillColor=none;strokeColor=default;dashed=1;" parent="1" vertex="1">
          <mxGeometry x="-2880" y="128" width="200" height="522" as="geometry" />
        </mxCell>
        <mxCell id="JBjidpgJkJ3qZbdawhBS-2" value="&lt;font style=&quot;font-size: 24px;&quot;&gt;Sources&lt;/font&gt;" style="rounded=1;whiteSpace=wrap;html=1;strokeColor=none;" parent="1" vertex="1">
          <mxGeometry x="-2840" y="105" width="120" height="42" as="geometry" />
        </mxCell>
        <mxCell id="eXvhJl0RNyIvwt-oUu9l-11" style="edgeStyle=orthogonalEdgeStyle;rounded=0;orthogonalLoop=1;jettySize=auto;html=1;" parent="1" edge="1">
          <mxGeometry relative="1" as="geometry">
            <mxPoint x="-2745.5" y="275" as="sourcePoint" />
            <mxPoint x="-2575" y="275" as="targetPoint" />
            <Array as="points">
              <mxPoint x="-2650" y="275" />
              <mxPoint x="-2650" y="275" />
            </Array>
          </mxGeometry>
        </mxCell>
        <mxCell id="eXvhJl0RNyIvwt-oUu9l-12" style="edgeStyle=orthogonalEdgeStyle;rounded=0;orthogonalLoop=1;jettySize=auto;html=1;entryX=0.091;entryY=0.087;entryDx=0;entryDy=0;entryPerimeter=0;" parent="1" edge="1">
          <mxGeometry relative="1" as="geometry">
            <mxPoint x="-2760" y="275" as="sourcePoint" />
            <mxPoint x="-2579.98" y="209.93399999999997" as="targetPoint" />
            <Array as="points">
              <mxPoint x="-2670" y="275" />
              <mxPoint x="-2670" y="210" />
            </Array>
          </mxGeometry>
        </mxCell>
        <mxCell id="eXvhJl0RNyIvwt-oUu9l-30" style="edgeStyle=orthogonalEdgeStyle;rounded=0;orthogonalLoop=1;jettySize=auto;html=1;entryX=0.091;entryY=0.336;entryDx=0;entryDy=0;entryPerimeter=0;" parent="1" source="eXvhJl0RNyIvwt-oUu9l-1" target="eXvhJl0RNyIvwt-oUu9l-4" edge="1">
          <mxGeometry relative="1" as="geometry">
            <Array as="points">
              <mxPoint x="-2670" y="275" />
              <mxPoint x="-2670" y="330" />
            </Array>
          </mxGeometry>
        </mxCell>
        <mxCell id="eXvhJl0RNyIvwt-oUu9l-1" value="CRM" style="image;aspect=fixed;html=1;points=[];align=center;fontSize=20;image=img/lib/azure2/general/Folder_Blank.svg;fontStyle=1" parent="1" vertex="1">
          <mxGeometry x="-2814.5" y="247" width="69" height="56.00000000000001" as="geometry" />
        </mxCell>
        <mxCell id="eXvhJl0RNyIvwt-oUu9l-2" value="ERP" style="image;aspect=fixed;html=1;points=[];align=center;fontSize=20;image=img/lib/azure2/general/Folder_Blank.svg;fontStyle=1" parent="1" vertex="1">
          <mxGeometry x="-2817.5" y="452" width="69" height="56.00000000000001" as="geometry" />
        </mxCell>
        <mxCell id="eXvhJl0RNyIvwt-oUu9l-4" value="" style="rounded=1;whiteSpace=wrap;html=1;fillStyle=hatch;strokeColor=#d79b00;fillColor=#ffe6cc;arcSize=5;" parent="1" vertex="1">
          <mxGeometry x="-2600" y="168" width="220" height="482" as="geometry" />
        </mxCell>
        <mxCell id="eXvhJl0RNyIvwt-oUu9l-5" value="&lt;font style=&quot;font-size: 24px;&quot;&gt;Bronze Layer&lt;/font&gt;" style="rounded=1;whiteSpace=wrap;html=1;fillColor=#ffe6cc;strokeColor=#d79b00;fillStyle=auto;arcSize=23;" parent="1" vertex="1">
          <mxGeometry x="-2600" y="103" width="220" height="55" as="geometry" />
        </mxCell>
        <mxCell id="8ymnvjm15jKcH297r-dE-9" style="edgeStyle=orthogonalEdgeStyle;rounded=0;orthogonalLoop=1;jettySize=auto;html=1;entryX=0;entryY=0.5;entryDx=0;entryDy=0;" parent="1" source="eXvhJl0RNyIvwt-oUu9l-7" target="8ymnvjm15jKcH297r-dE-3" edge="1">
          <mxGeometry relative="1" as="geometry" />
        </mxCell>
        <mxCell id="eXvhJl0RNyIvwt-oUu9l-7" value="&lt;font style=&quot;font-size: 18px;&quot;&gt;crm_sales_detail&lt;/font&gt;" style="rounded=1;whiteSpace=wrap;html=1;fillColor=#ffe6cc;strokeColor=#d79b00;fillStyle=auto;arcSize=23;" parent="1" vertex="1">
          <mxGeometry x="-2575" y="190" width="175" height="50" as="geometry" />
        </mxCell>
        <mxCell id="8ymnvjm15jKcH297r-dE-10" style="edgeStyle=orthogonalEdgeStyle;rounded=0;orthogonalLoop=1;jettySize=auto;html=1;entryX=0;entryY=0.5;entryDx=0;entryDy=0;" parent="1" source="eXvhJl0RNyIvwt-oUu9l-9" target="8ymnvjm15jKcH297r-dE-4" edge="1">
          <mxGeometry relative="1" as="geometry" />
        </mxCell>
        <mxCell id="eXvhJl0RNyIvwt-oUu9l-9" value="&lt;span style=&quot;font-size: 18px;&quot;&gt;crm_cust_info&lt;/span&gt;" style="rounded=1;whiteSpace=wrap;html=1;fillColor=#ffe6cc;strokeColor=#d79b00;fillStyle=auto;arcSize=23;" parent="1" vertex="1">
          <mxGeometry x="-2575" y="250" width="175" height="50" as="geometry" />
        </mxCell>
        <mxCell id="8ymnvjm15jKcH297r-dE-11" style="edgeStyle=orthogonalEdgeStyle;rounded=0;orthogonalLoop=1;jettySize=auto;html=1;entryX=0;entryY=0.5;entryDx=0;entryDy=0;" parent="1" source="eXvhJl0RNyIvwt-oUu9l-10" target="8ymnvjm15jKcH297r-dE-5" edge="1">
          <mxGeometry relative="1" as="geometry" />
        </mxCell>
        <mxCell id="eXvhJl0RNyIvwt-oUu9l-10" value="&lt;font style=&quot;font-size: 18px;&quot;&gt;crm_prd_info&lt;/font&gt;" style="rounded=1;whiteSpace=wrap;html=1;fillColor=#ffe6cc;strokeColor=#d79b00;fillStyle=auto;arcSize=23;" parent="1" vertex="1">
          <mxGeometry x="-2575" y="310" width="175" height="50" as="geometry" />
        </mxCell>
        <mxCell id="8ymnvjm15jKcH297r-dE-12" style="edgeStyle=orthogonalEdgeStyle;rounded=0;orthogonalLoop=1;jettySize=auto;html=1;entryX=0;entryY=0.5;entryDx=0;entryDy=0;" parent="1" source="eXvhJl0RNyIvwt-oUu9l-14" target="8ymnvjm15jKcH297r-dE-6" edge="1">
          <mxGeometry relative="1" as="geometry" />
        </mxCell>
        <mxCell id="eXvhJl0RNyIvwt-oUu9l-14" value="&lt;span style=&quot;font-size: 18px;&quot;&gt;erp_cust_az12&lt;/span&gt;" style="rounded=1;whiteSpace=wrap;html=1;fillColor=#ffe6cc;strokeColor=#d79b00;fillStyle=auto;arcSize=23;" parent="1" vertex="1">
          <mxGeometry x="-2577" y="398" width="175" height="50" as="geometry" />
        </mxCell>
        <mxCell id="8ymnvjm15jKcH297r-dE-13" style="edgeStyle=orthogonalEdgeStyle;rounded=0;orthogonalLoop=1;jettySize=auto;html=1;entryX=0;entryY=0.5;entryDx=0;entryDy=0;" parent="1" source="eXvhJl0RNyIvwt-oUu9l-15" target="8ymnvjm15jKcH297r-dE-7" edge="1">
          <mxGeometry relative="1" as="geometry" />
        </mxCell>
        <mxCell id="eXvhJl0RNyIvwt-oUu9l-15" value="&lt;span style=&quot;font-size: 18px;&quot;&gt;erp_loc_a101&lt;/span&gt;" style="rounded=1;whiteSpace=wrap;html=1;fillColor=#ffe6cc;strokeColor=#d79b00;fillStyle=auto;arcSize=23;" parent="1" vertex="1">
          <mxGeometry x="-2577" y="458" width="175" height="50" as="geometry" />
        </mxCell>
        <mxCell id="8ymnvjm15jKcH297r-dE-14" style="edgeStyle=orthogonalEdgeStyle;rounded=0;orthogonalLoop=1;jettySize=auto;html=1;entryX=0;entryY=0.5;entryDx=0;entryDy=0;" parent="1" source="eXvhJl0RNyIvwt-oUu9l-16" target="8ymnvjm15jKcH297r-dE-8" edge="1">
          <mxGeometry relative="1" as="geometry" />
        </mxCell>
        <mxCell id="eXvhJl0RNyIvwt-oUu9l-16" value="&lt;font style=&quot;font-size: 18px;&quot;&gt;erp_px_cat_g1v2&lt;/font&gt;" style="rounded=1;whiteSpace=wrap;html=1;fillColor=#ffe6cc;strokeColor=#d79b00;fillStyle=auto;arcSize=23;" parent="1" vertex="1">
          <mxGeometry x="-2577" y="518" width="175" height="50" as="geometry" />
        </mxCell>
        <mxCell id="eXvhJl0RNyIvwt-oUu9l-38" style="edgeStyle=orthogonalEdgeStyle;rounded=0;orthogonalLoop=1;jettySize=auto;html=1;" parent="1" edge="1">
          <mxGeometry relative="1" as="geometry">
            <mxPoint x="-2748.5" y="485" as="sourcePoint" />
            <mxPoint x="-2580" y="485" as="targetPoint" />
          </mxGeometry>
        </mxCell>
        <mxCell id="8ymnvjm15jKcH297r-dE-1" value="" style="rounded=1;whiteSpace=wrap;html=1;fillStyle=hatch;strokeColor=#36393d;fillColor=#eeeeee;arcSize=5;" parent="1" vertex="1">
          <mxGeometry x="-2290" y="168" width="220" height="482" as="geometry" />
        </mxCell>
        <mxCell id="8ymnvjm15jKcH297r-dE-2" value="&lt;font style=&quot;font-size: 24px;&quot;&gt;Silver Layer&lt;/font&gt;" style="rounded=1;whiteSpace=wrap;html=1;fillColor=#eeeeee;strokeColor=#36393d;fillStyle=auto;arcSize=23;" parent="1" vertex="1">
          <mxGeometry x="-2290" y="103" width="220" height="55" as="geometry" />
        </mxCell>
        <mxCell id="8ymnvjm15jKcH297r-dE-3" value="&lt;font style=&quot;font-size: 18px;&quot;&gt;crm_sales_detail&lt;/font&gt;" style="rounded=1;whiteSpace=wrap;html=1;fillColor=#eeeeee;strokeColor=#36393d;fillStyle=auto;arcSize=23;" parent="1" vertex="1">
          <mxGeometry x="-2265" y="190" width="175" height="50" as="geometry" />
        </mxCell>
        <mxCell id="8ymnvjm15jKcH297r-dE-4" value="&lt;span style=&quot;font-size: 18px;&quot;&gt;crm_cust_info&lt;/span&gt;" style="rounded=1;whiteSpace=wrap;html=1;fillColor=#eeeeee;strokeColor=#36393d;fillStyle=auto;arcSize=23;" parent="1" vertex="1">
          <mxGeometry x="-2265" y="250" width="175" height="50" as="geometry" />
        </mxCell>
        <mxCell id="8ymnvjm15jKcH297r-dE-5" value="&lt;font style=&quot;font-size: 18px;&quot;&gt;crm_prd_info&lt;/font&gt;" style="rounded=1;whiteSpace=wrap;html=1;fillColor=#eeeeee;strokeColor=#36393d;fillStyle=auto;arcSize=23;" parent="1" vertex="1">
          <mxGeometry x="-2265" y="310" width="175" height="50" as="geometry" />
        </mxCell>
        <mxCell id="8ymnvjm15jKcH297r-dE-6" value="&lt;span style=&quot;font-size: 18px;&quot;&gt;erp_cust_az12&lt;/span&gt;" style="rounded=1;whiteSpace=wrap;html=1;fillColor=#eeeeee;strokeColor=#36393d;fillStyle=auto;arcSize=23;" parent="1" vertex="1">
          <mxGeometry x="-2267" y="398" width="175" height="50" as="geometry" />
        </mxCell>
        <mxCell id="8ymnvjm15jKcH297r-dE-7" value="&lt;span style=&quot;font-size: 18px;&quot;&gt;erp_loc_a101&lt;/span&gt;" style="rounded=1;whiteSpace=wrap;html=1;fillColor=#eeeeee;strokeColor=#36393d;fillStyle=auto;arcSize=23;" parent="1" vertex="1">
          <mxGeometry x="-2267" y="458" width="175" height="50" as="geometry" />
        </mxCell>
        <mxCell id="8ymnvjm15jKcH297r-dE-8" value="&lt;font style=&quot;font-size: 18px;&quot;&gt;erp_px_cat_g1v2&lt;/font&gt;" style="rounded=1;whiteSpace=wrap;html=1;fillColor=#eeeeee;strokeColor=#36393d;fillStyle=auto;arcSize=23;" parent="1" vertex="1">
          <mxGeometry x="-2267" y="518" width="175" height="50" as="geometry" />
        </mxCell>
        <mxCell id="WkvLL7POnDr1lEF7GQp6-1" value="" style="rounded=1;whiteSpace=wrap;html=1;fillStyle=hatch;strokeColor=#c1c115;fillColor=#f5f551;arcSize=5;" parent="1" vertex="1">
          <mxGeometry x="-1969" y="168" width="220" height="482" as="geometry" />
        </mxCell>
        <mxCell id="WkvLL7POnDr1lEF7GQp6-2" value="&lt;font style=&quot;font-size: 24px;&quot;&gt;Gold Layer&lt;/font&gt;" style="rounded=1;whiteSpace=wrap;html=1;fillColor=#f5f551;strokeColor=#c1c115;fillStyle=auto;arcSize=23;" parent="1" vertex="1">
          <mxGeometry x="-1969" y="103" width="220" height="55" as="geometry" />
        </mxCell>
        <mxCell id="WkvLL7POnDr1lEF7GQp6-3" value="&lt;font style=&quot;font-size: 18px;&quot;&gt;fact_sales&lt;/font&gt;" style="rounded=1;whiteSpace=wrap;html=1;fillColor=#f5f551;strokeColor=#c1c115;fillStyle=auto;arcSize=23;" parent="1" vertex="1">
          <mxGeometry x="-1944" y="230" width="175" height="50" as="geometry" />
        </mxCell>
        <mxCell id="WkvLL7POnDr1lEF7GQp6-4" value="&lt;span style=&quot;font-size: 18px;&quot;&gt;dim_customers&lt;/span&gt;" style="rounded=1;whiteSpace=wrap;html=1;fillColor=#f5f551;strokeColor=#c1c115;fillStyle=auto;arcSize=23;" parent="1" vertex="1">
          <mxGeometry x="-1944" y="348" width="175" height="50" as="geometry" />
        </mxCell>
        <mxCell id="WkvLL7POnDr1lEF7GQp6-5" value="&lt;font style=&quot;font-size: 18px;&quot;&gt;dim_products&lt;/font&gt;" style="rounded=1;whiteSpace=wrap;html=1;fillColor=#f5f551;strokeColor=#c1c115;fillStyle=auto;arcSize=23;" parent="1" vertex="1">
          <mxGeometry x="-1944" y="500" width="175" height="50" as="geometry" />
        </mxCell>
        <mxCell id="_eiXB63b1kojojGN_5qS-1" value="" style="endArrow=classic;html=1;rounded=0;exitX=0.955;exitY=0.108;exitDx=0;exitDy=0;exitPerimeter=0;entryX=0;entryY=0.5;entryDx=0;entryDy=0;" parent="1" source="8ymnvjm15jKcH297r-dE-1" target="WkvLL7POnDr1lEF7GQp6-3" edge="1">
          <mxGeometry width="50" height="50" relative="1" as="geometry">
            <mxPoint x="-2040" y="290" as="sourcePoint" />
            <mxPoint x="-1990" y="240" as="targetPoint" />
          </mxGeometry>
        </mxCell>
        <mxCell id="_eiXB63b1kojojGN_5qS-2" value="" style="endArrow=classic;html=1;rounded=0;exitX=1;exitY=0.5;exitDx=0;exitDy=0;entryX=0;entryY=0.5;entryDx=0;entryDy=0;jumpStyle=gap;" parent="1" source="8ymnvjm15jKcH297r-dE-4" target="WkvLL7POnDr1lEF7GQp6-4" edge="1">
          <mxGeometry width="50" height="50" relative="1" as="geometry">
            <mxPoint x="-2070" y="280" as="sourcePoint" />
            <mxPoint x="-1934" y="315" as="targetPoint" />
            <Array as="points" />
          </mxGeometry>
        </mxCell>
        <mxCell id="_eiXB63b1kojojGN_5qS-3" value="" style="endArrow=classic;html=1;rounded=0;exitX=1;exitY=0.5;exitDx=0;exitDy=0;entryX=0;entryY=0.75;entryDx=0;entryDy=0;jumpStyle=gap;" parent="1" source="8ymnvjm15jKcH297r-dE-6" target="WkvLL7POnDr1lEF7GQp6-4" edge="1">
          <mxGeometry width="50" height="50" relative="1" as="geometry">
            <mxPoint x="-2060" y="416" as="sourcePoint" />
            <mxPoint x="-1924" y="451" as="targetPoint" />
          </mxGeometry>
        </mxCell>
        <mxCell id="_eiXB63b1kojojGN_5qS-4" value="" style="endArrow=classic;html=1;rounded=0;exitX=1;exitY=0.5;exitDx=0;exitDy=0;entryX=0.132;entryY=0.481;entryDx=0;entryDy=0;entryPerimeter=0;jumpStyle=gap;" parent="1" source="8ymnvjm15jKcH297r-dE-7" target="WkvLL7POnDr1lEF7GQp6-1" edge="1">
          <mxGeometry width="50" height="50" relative="1" as="geometry">
            <mxPoint x="-2050" y="440" as="sourcePoint" />
            <mxPoint x="-1914" y="475" as="targetPoint" />
          </mxGeometry>
        </mxCell>
        <mxCell id="_eiXB63b1kojojGN_5qS-5" value="" style="endArrow=classic;html=1;rounded=0;exitX=0.955;exitY=0.108;exitDx=0;exitDy=0;exitPerimeter=0;entryX=0;entryY=0.5;entryDx=0;entryDy=0;jumpStyle=gap;" parent="1" target="WkvLL7POnDr1lEF7GQp6-5" edge="1">
          <mxGeometry width="50" height="50" relative="1" as="geometry">
            <mxPoint x="-2090" y="339" as="sourcePoint" />
            <mxPoint x="-1954" y="374" as="targetPoint" />
          </mxGeometry>
        </mxCell>
        <mxCell id="_eiXB63b1kojojGN_5qS-6" value="" style="endArrow=classic;html=1;rounded=0;exitX=1;exitY=0.5;exitDx=0;exitDy=0;entryX=0;entryY=0.5;entryDx=0;entryDy=0;jumpStyle=gap;" parent="1" edge="1">
          <mxGeometry width="50" height="50" relative="1" as="geometry">
            <mxPoint x="-2092" y="550" as="sourcePoint" />
            <mxPoint x="-1944" y="532" as="targetPoint" />
          </mxGeometry>
        </mxCell>
      </root>
    </mxGraphModel>
  </diagram>
</mxfile>
